<?xml version="1.0" encoding="utf-8"?>
<!-- Generator: Adobe Illustrator 16.0.0, SVG Export Plug-In . SVG Version: 6.00 Build 0)  -->
<!DOCTYPE svg PUBLIC "-//W3C//DTD SVG 1.1//EN" "http://www.w3.org/Graphics/SVG/1.1/DTD/svg11.dtd">
<svg version="1.1" id="Layer_1" xmlns="http://www.w3.org/2000/svg" xmlns:xlink="http://www.w3.org/1999/xlink" x="0px" y="0px"
	 width="538.58px" height="538.58px" viewBox="0 0 538.58 538.58" enable-background="new 0 0 538.58 538.58" xml:space="preserve">
<rect x="-0.001" y="-1.286" fill="#FDFDFD" stroke="#F8F5F5" stroke-width="1.8976" stroke-miterlimit="10" width="538.583" height="538.582"/>
<rect x="-0.001" y="-1.286" fill="none" width="538.583" height="538.582"/>
<g>
	<path fill="#1B314C" stroke="#F8F5F5" stroke-width="1.5" stroke-miterlimit="10" d="M276.793,302.726
		c-5.018,0.227-10.009,1.654-15.105,1.979c-9.166,0.584-17.182-1.412-26.258-2.854c-4.213-0.672-8.106-3.48-12.145-4.986
		c-5.367-1.996-7.285-3.934-10.185-8.684c-2.659-4.361-5.804-8.986-6.124-14.455c-0.1-1.738,0.969-4.068,0.318-5.711
		c-0.463-1.164-2.19-2.094-2.943-3.023c-1.801-2.217-2.223-4.354-2.908-7.121c-0.394-1.574-2.152-4.701-0.393-6.055
		c1.422-1.094,4.182,1.054,5.916,0.956c-0.059-3.243-4.48-6.081-5.658-9.011c-1.438-3.565-2.26-8.027-2.624-11.756
		c-0.382-3.933-1.536-7.902-0.86-11.79c1.075-6.173,7.104-1.329,11.023-0.88c-0.729-1.922-3.884-4.41-4.107-6.502
		c-0.221-2.031,0.469-4.16,0.23-6.334c-0.25-2.26-1.025-4.184-0.77-6.451c0.219-1.979,0.803-3.789,0.729-5.811
		c-0.15-4.098-0.262-8.576,0.536-12.69c0.327-1.674,0.327-3.897,2.069-4.319c1.188-0.291,3.725,1.547,4.646,2.277
		c0.044-2.452-1.222-5.143-0.933-7.514c0.26-2.146,1.657-4.269,2.584-6.262c1.415-3.034,5.526-9.75,9.572-9.065
		c1.487-3.907,2.664-6.872,5.069-10.621c1.011-1.574,1.661-3.202,3.054-4.494c1.796-1.665,3.963-1.391,5.561-2.525
		c2.143-1.521,8.52-9.464,11.239-6.445c2.442,2.711-0.829,3.818,3.558,2.865c2.383-0.517,4.644-0.821,6.974-1.074
		c6.921-0.757,14.315-3.866,20.491,0.36c2.922-1.546,6.408-3.596,9.861-2.821c3.748,0.842,4.943,4.393,6.883,7.264
		c4.207-2.925,14.066,13.717,14.559,17.466c4.375-0.495,4.299,0.562,5.354,4.586c0.803,3.068,2.324,5.918,2.756,9.06
		c6.482-2.806,5.535,18.122,6.609,21.139c4.324-1.332,7.955,1.589,8.318,5.573c0.385,4.139-0.334,7.842-0.912,11.87
		c-0.562,3.872,0.08,8.041-0.158,11.935c-0.166,2.711,0.611,5.359,0.604,8.056c0,3.276,0.02,3.383,1.498,5.977
		c1.973,3.453,1.867,8.552,1.131,12.354c-1.006,5.164-2.865,10.35-5.432,14.846c-2.289,4.01-5.613,7.9-6.51,12.369
		c-1.092,5.434-1.383,9.506-5.955,13.674c-4.857,4.436-10.24,7.568-16.42,9.715C293.186,300.688,285.561,302.329,276.793,302.726z"
		/>
	<path fill="#1B314C" stroke="#F8F5F5" stroke-width="1.5" stroke-miterlimit="10" d="M295.914,139.256
		c-1.309,1.623-2.432,3.255-3.117,5.266c-0.391,1.138-0.605,2.367-0.848,3.576c-0.098,0.491-0.273,1.069-0.357,1.603
		c-0.088,0.517,0.283,0.92-0.088,0.517"/>
	<path fill="#1B314C" stroke="#F8F5F5" stroke-width="1.5" stroke-miterlimit="10" d="M228.859,145.536
		c2.24-1.057,5.342-0.077,7.532,0.833c2.291,0.954,4.215,1.306,6.575,1.987c2.81,0.81,4.128,1.906,6.155,3.987
		c1.943,1.999,4.033,3.271,6.443,4.728c1.256,0.757,2.5,1.495,3.764,2.211c0.551,0.309,1.125,0.546,1.673,0.855
		c0.346,0.2,1.75,1.286,1.75,1.286"/>
	<path fill="#1B314C" stroke="#F8F5F5" stroke-width="1.5" stroke-miterlimit="10" d="M309.318,173.413
		c-0.885-0.289-0.672-7.894-1.293-9.284c-1.035-2.319-2.062-4.985-3.771-6.891c-1.523-1.7-3.434-3.226-5.271-4.641
		c-1.818-1.397-4.025-1.575-6.152-1.797c-2.328-0.246-4.6-0.078-7.002-0.55c-2.896-0.573-5.576-0.084-8.137,1.432
		c-4.416,2.619-8.796,4.759-12.576,8.239c-1.367,1.262-2.895,1.811-4.082,3.36c0.096-0.091-0.098,0.091,0,0"/>
	<path fill="#1B314C" stroke="#F8F5F5" stroke-width="1.5" stroke-miterlimit="10" d="M223.931,175.307
		c-2.271,0.382-3.98-4.445-4.619-5.953c-1.054-2.479-1.907-6.351-2.222-8.69"/>
	<path fill="#1B314C" stroke="#F8F5F5" stroke-width="1.5" stroke-miterlimit="10" d="M312.164,156.938
		c-0.096,0.258,0.115,0.968,0.09,1.443c-0.037,0.689-0.348,1.357-0.773,1.926c-0.795,1.068-2.051,2.133-3.125,2.892"/>
	<path fill="#1B314C" stroke="#F8F5F5" stroke-width="1.5" stroke-miterlimit="10" d="M318.742,170.222
		c-1.482,1.104-4.207,0.582-6.004,1.421c-2.07,0.972-4.035,2.193-6.127,3.106c-4.92,2.148-8.109,6.27-11.732,9.973
		c-0.047,0.048-0.764,0.89-0.562,0.68"/>
	<path fill="#1B314C" stroke="#F8F5F5" stroke-width="1.5" stroke-miterlimit="10" d="M286.404,185.43
		c0.031,0.123,0.049,0.252,0.08,0.375c-0.793-2.266-2.23-4.327-4.266-5.628c-1.91-1.224-3.506-2.159-5.059-3.932
		c-1.566-1.79-3.438-2.912-5.25-4.422c-1.143-0.949-2.416-1.74-3.46-2.796c-1.066-1.08-1.914-2.282-3.223-3.091
		c-1.352-0.835-2.645-2.229-4.226-2.614c-0.825-0.199-1.815,0.114-2.657,0.194c-1.254,0.122-2.477,0.217-3.797,0.334
		c-2.932,0.258-6.044,1.225-8.982,1.007c-2.92-0.217-5.988,0.04-8.926,0.176c-2.754,0.13-5.562,0.968-7.213,3.24
		c-0.738,1.016-4.203,4.959-4.39,5.591"/>
	<path fill="#1B314C" stroke="#F8F5F5" stroke-width="1.5" stroke-miterlimit="10" d="M279.135,134.788
		c2.074,1.478,2.906,5.197,3.266,7.56c0.221,1.467,0.518,2.956,0.285,4.436c-0.104,0.666-0.547,2.787-0.533,2.796"/>
	<path fill="#1B314C" stroke="#F8F5F5" stroke-width="1.5" stroke-miterlimit="10" d="M249.827,135.78
		c-1.888,0.088-3.984,4.264-5.049,5.762c-1.332,1.882-2.459,4.381-3.141,6.328"/>
	<path fill="#1B314C" stroke="#F8F5F5" stroke-width="1.5" stroke-miterlimit="10" d="M212.181,179.505c0,0,3.792,2.635,4.63,3.237
		c2.078,1.49,3.67,3.244,5.476,5.04c3.273,3.25,6.389,6.56,10.354,9.021c2.039,1.267,3.383,2.33,4.908,4.212
		c1.299,1.598,2.314,3.27,3.301,4.963c0.011-0.153-0.01-0.303-0.064-0.445"/>
	<path fill="#1B314C" stroke="#F8F5F5" stroke-width="1.5" stroke-miterlimit="10" d="M225.037,173.864
		c-1.362,1.831-2.927,3.69-4.301,5.574c-0.647,0.881-2.698,3.611-2.356,4.401"/>
	<path fill="#1B314C" stroke="#F8F5F5" stroke-width="1.5" stroke-miterlimit="10" d="M240.696,206.812
		c1.01-2.745,5.41-5.881,7.566-7.738c2.652-2.291,5.159-4.123,8.295-5.672c2.713-1.342,5.334-2.746,8.314-3.479
		c2.764-0.677,5.343-1.941,8.142-2.496c2.932-0.582,6.035-0.595,9.01-0.897c1.988-0.199,3.961-0.686,5.975-0.969
		c2.516-0.355,4.48-0.083,6.873,0.516c0.988,0.246,1.818,0.298,2.658,0.927c0.93,0.698,1.275,0.631,2.402,0.927
		c1.617,0.416,3.174,2.438,4.336,3.596c1.354,1.354,2.664,2.732,3.951,4.175c1.598,1.795,3.369,3.096,4.738,5.088
		c0.65,0.942,1.615,1.802,2.01,2.86c0.398,1.09,0.221,2.274,0.443,3.365c0.246,1.203,1.047,2.802,1.021,3.764"/>
	<path fill="#1B314C" stroke="#F8F5F5" stroke-width="1.5" stroke-miterlimit="10" d="M333.248,196.081
		c-0.469,0.885-0.578,1.479-1.332,2.512c-0.766,1.057-1.805,1.977-2.658,2.97c-1.436,1.667-3.209,3.567-4.295,5.494"/>
	<path fill="#1B314C" stroke="#F8F5F5" stroke-width="1.5" stroke-miterlimit="10" d="M332.605,215.702
		c-0.391-0.863-0.584-1.619-1.451-2.479c-0.693-0.699-1.26-1.423-1.811-2.222c-0.984-1.424-2.365-2.682-4.031-3.32
		c-1.711-0.652-3.555,0.251-5.029,1.219c-1.605,1.059-3.141,1.75-5.062,2.225c-2.369,0.584-4.293,0.25-6.586,1.316
		c-2.449,1.141-4.645,2.735-7.068,3.992c-5.4,2.805-10.955,5.281-15.77,9.209c-2.15,1.752-4.414,3.36-6.373,5.311
		c-1.508,1.497-4.432,4.252-4.432,4.252"/>
	<path fill="#1B314C" stroke="#F8F5F5" stroke-width="1.5" stroke-miterlimit="10" d="M278.455,231.944
		c-0.184-1.303-2.057-2.16-3-3.01c-1.244-1.119-2.439-2.016-4.01-2.675c-3.673-1.548-7.248-4.081-10.492-6.421
		c-3.387-2.442-6.398-5.393-9.861-7.715c-2.211-1.484-4.644-3.551-7.291-4.135c-0.862-0.188-1.527-0.197-2.299-0.559
		c-0.737-0.34-1.375-0.863-2.136-1.141c-2.603-0.954-5.899-1.065-8.606-0.895c-2.51,0.156-4.767,0.749-7.287,0.477
		c-2.418-0.264-4.819-0.064-7.259-0.244c-2.653-0.191-5.458-0.352-7.251,1.896c-2.274,2.848-1.953,6.609-0.844,9.889
		c0.939,2.779,2.359,5.272,3.165,8.103c1.122,3.937,3.683,6.579,5.822,9.905c1.479,2.309,2.662,4.886,4.79,6.748
		c1.467,1.281,3.285,2.283,4.609,3.664"/>
	<path fill="#1B314C" stroke="#F8F5F5" stroke-width="1.5" stroke-miterlimit="10" d="M306.686,266.72
		c1.605-2.72,2.199-5.338,0.914-8.377c-1.246-2.953-3.193-5.299-5.182-7.844c-1.77-2.263-3.822-3.954-5.814-6.017
		c-2.205-2.288-4.299-4.579-7.07-6.2c-4.244-2.477-9.775-3.158-14.541-3.078c-1.59,0.027-3.094,0.662-4.629,1.037
		c-1.798,0.438-3.695,0.688-5.512,0.871c-3.408,0.338-6.827-0.233-10.257-0.168c-1.891,0.037-3.779-0.225-5.664-0.053
		c-2.013,0.186-3.842,0.855-5.715,1.531c-2.625,0.941-5.406,1.541-8.086,2.373c-2.316,0.717-4.78,1.36-6.732,2.936
		c-1.09,0.881-1.674,2.144-2.607,3.16c-0.85,0.933-1.764,1.479-2.409,2.559c-1.095,1.82-1.368,3.135-1.725,5.163
		c0.089-0.062-0.103,0.204-0.016,0.138"/>
	<path fill="#1B314C" stroke="#F8F5F5" stroke-width="1.5" stroke-miterlimit="10" d="M334.307,234.104
		c1.719,3.221-2.834,5.821-4.797,7.605c-2.326,2.119-4.711,4.301-7.268,6.191c-2.385,1.77-4.809,3.689-7.004,5.688
		c-2.289,2.086-5.02,3.897-7.174,6.121"/>
	<path fill="#1B314C" stroke="#F8F5F5" stroke-width="1.5" stroke-miterlimit="10" d="M323.486,275.569
		c-0.014-0.99-0.957-1.561-1.557-2.23c-0.807-0.896-1.254-1.949-1.945-2.875c-1.484-1.99-3.941-2.791-6.262-3.344
		c-2.559-0.607-4.305-0.379-6.963,0.148c-2.643,0.523-4.977,1.767-7.662,2.081c-2.117,0.249-4.027,0.474-6.15,0.133
		c-1.633-0.261-3.238-0.548-4.908-0.415c-3.836,0.305-7.316,1.492-10.607,3.516c-2.783,1.705-5.51,3.188-7.946,5.371
		c-1.409,1.271-2.798,3.094-4.511,3.963c-1.47,0.744-3.06,1-4.09,2.469c-0.875,1.252-1.889,2.336-3.025,3.383
		c-0.799,0.734-1.551,1.449-2.242,2.275c-0.924,1.098-9.034,12.68-9.812,13.576"/>
	<path fill="#1B314C" stroke="#F8F5F5" stroke-width="1.5" stroke-miterlimit="10" d="M207.17,252.925
		c2.349,0.414,4.738,0.042,7.115,0.533c2.512,0.523,4.959,1.127,7.467,1.41c1.9,0.219,3.704,0.463,5.554,0.967
		c2.382,0.645,3.467,2.852,5.478,4.264c1.58,1.115,2.517,2.69,3.854,4.033c1.26,1.264,3.195,2.085,4.646,3.139
		c1.268,0.918,2.545,1.879,3.816,2.805c1.505,1.098,2.608,2.639,4.121,3.703c1.09,0.77,2.364,1.328,3.443,2.115
		c1.139,0.838,2.07,2.111,2.9,3.25c1.783,2.445,2.346,4.197,4.361,6.477"/>
	<path fill="#1B314C" stroke="#F8F5F5" stroke-width="1.5" stroke-miterlimit="10" d="M207.395,271.296
		c0.148,1.16,0.797,2.49,1.258,3.545c0.515,1.164,1.303,2.162,1.841,3.316c1.19,2.545,2.065,5.238,4.114,7.242
		c0.894,0.873,1.979,1.646,3.033,2.305c1.273,0.791,2.545,1.814,3.876,2.508c2.573,1.346,5.468,2.051,7.782,3.857
		c1.406,1.098,9.895,7.734,11.396,8.674"/>
</g>
<text transform="matrix(1 0 0 1 192.3726 399.1943)" fill="#1B314C" font-family="'Existence-Light'" font-size="91.5875">JAR</text>
</svg>
