<?xml version="1.0" encoding="utf-8"?>
<!-- Generator: Adobe Illustrator 16.0.0, SVG Export Plug-In . SVG Version: 6.00 Build 0)  -->
<!DOCTYPE svg PUBLIC "-//W3C//DTD SVG 1.1//EN" "http://www.w3.org/Graphics/SVG/1.1/DTD/svg11.dtd">
<svg version="1.1" id="Layer_1" xmlns="http://www.w3.org/2000/svg" xmlns:xlink="http://www.w3.org/1999/xlink" x="0px" y="0px"
	 width="538.58px" height="538.58px" viewBox="0 0 538.58 538.58" enable-background="new 0 0 538.58 538.58" xml:space="preserve">
<rect x="-0.002" y="-0.002" fill="#676868" width="538.583" height="538.583"/>
<g>
	<path fill="#FFFFFF" stroke="#676868" stroke-miterlimit="10" d="M276.793,302.727c-5.019,0.227-10.01,1.654-15.105,1.979
		c-9.166,0.584-17.182-1.412-26.258-2.854c-4.213-0.672-8.106-3.48-12.145-4.986c-5.367-1.996-7.285-3.934-10.185-8.684
		c-2.659-4.361-5.804-8.986-6.124-14.455c-0.1-1.738,0.969-4.068,0.318-5.711c-0.463-1.164-2.19-2.094-2.943-3.023
		c-1.801-2.217-2.223-4.354-2.908-7.121c-0.394-1.574-2.152-4.701-0.393-6.055c1.422-1.094,4.182,1.054,5.916,0.956
		c-0.059-3.243-4.48-6.081-5.658-9.011c-1.438-3.565-2.26-8.027-2.624-11.756c-0.382-3.933-1.536-7.902-0.86-11.79
		c1.075-6.173,7.104-1.329,11.023-0.88c-0.729-1.922-3.884-4.41-4.107-6.502c-0.221-2.031,0.469-4.16,0.23-6.334
		c-0.25-2.26-1.025-4.184-0.77-6.451c0.219-1.979,0.803-3.789,0.729-5.811c-0.15-4.098-0.262-8.576,0.536-12.69
		c0.327-1.674,0.327-3.897,2.069-4.319c1.188-0.291,3.725,1.547,4.646,2.277c0.044-2.452-1.222-5.143-0.933-7.514
		c0.26-2.146,1.657-4.269,2.584-6.262c1.415-3.034,5.526-9.75,9.572-9.065c1.487-3.907,2.664-6.872,5.069-10.62
		c1.011-1.574,1.661-3.203,3.054-4.495c1.796-1.665,3.963-1.391,5.561-2.525c2.143-1.521,8.52-9.464,11.239-6.445
		c2.442,2.711-0.829,3.818,3.558,2.865c2.383-0.517,4.644-0.821,6.974-1.074c6.921-0.757,14.315-3.866,20.49,0.36
		c2.922-1.546,6.408-3.596,9.862-2.821c3.748,0.842,4.943,4.393,6.883,7.264c4.206-2.925,14.066,13.717,14.558,17.466
		c4.376-0.495,4.299,0.562,5.354,4.587c0.803,3.067,2.324,5.918,2.757,9.06c6.481-2.806,5.535,18.122,6.609,21.139
		c4.324-1.332,7.954,1.589,8.318,5.573c0.385,4.139-0.334,7.842-0.912,11.87c-0.563,3.872,0.08,8.041-0.158,11.935
		c-0.167,2.711,0.611,5.359,0.604,8.056c0,3.276,0.02,3.383,1.497,5.977c1.974,3.453,1.868,8.552,1.132,12.354
		c-1.006,5.164-2.866,10.35-5.432,14.846c-2.29,4.01-5.613,7.901-6.511,12.37c-1.092,5.434-1.383,9.506-5.955,13.674
		c-4.857,4.436-10.239,7.568-16.419,9.715C293.186,300.689,285.561,302.33,276.793,302.727z"/>
	<path fill="#FFFFFF" stroke="#676868" stroke-miterlimit="10" d="M295.913,139.256c-1.308,1.623-2.431,3.255-3.116,5.267
		c-0.392,1.137-0.606,2.367-0.848,3.575c-0.099,0.491-0.273,1.069-0.358,1.603c-0.087,0.518,0.283,0.92-0.087,0.518"/>
	<path fill="#FFFFFF" stroke="#676868" stroke-miterlimit="10" d="M228.858,145.537c2.24-1.057,5.342-0.077,7.532,0.832
		c2.291,0.954,4.215,1.307,6.575,1.987c2.81,0.81,4.128,1.906,6.155,3.987c1.943,1.998,4.033,3.271,6.443,4.728
		c1.256,0.757,2.5,1.495,3.764,2.212c0.551,0.309,1.125,0.545,1.673,0.854c0.346,0.2,1.75,1.286,1.75,1.286"/>
	<path fill="#FFFFFF" stroke="#676868" stroke-miterlimit="10" d="M309.318,173.414c-0.885-0.289-0.673-7.894-1.294-9.284
		c-1.034-2.319-2.062-4.985-3.771-6.891c-1.524-1.7-3.434-3.226-5.272-4.642c-1.818-1.396-4.024-1.574-6.151-1.797
		c-2.328-0.246-4.601-0.078-7.003-0.551c-2.896-0.572-5.576-0.084-8.136,1.432c-4.416,2.619-8.797,4.76-12.576,8.239
		c-1.367,1.262-2.895,1.811-4.082,3.36c0.096-0.092-0.098,0.091,0,0"/>
	<path fill="#FFFFFF" stroke="#676868" stroke-miterlimit="10" d="M223.931,175.308c-2.271,0.382-3.98-4.445-4.619-5.953
		c-1.054-2.479-1.907-6.352-2.222-8.691"/>
	<path fill="#FFFFFF" stroke="#676868" stroke-miterlimit="10" d="M312.164,156.938c-0.097,0.259,0.115,0.968,0.089,1.442
		c-0.036,0.689-0.348,1.357-0.773,1.927c-0.794,1.067-2.051,2.134-3.124,2.892"/>
	<path fill="#FFFFFF" stroke="#676868" stroke-miterlimit="10" d="M318.742,170.222c-1.482,1.105-4.207,0.582-6.004,1.422
		c-2.071,0.973-4.036,2.193-6.127,3.106c-4.921,2.147-8.11,6.27-11.732,9.973c-0.047,0.048-0.764,0.89-0.563,0.681"/>
	<path fill="#FFFFFF" stroke="#676868" stroke-miterlimit="10" d="M286.403,185.431c0.031,0.123,0.05,0.252,0.08,0.374
		c-0.793-2.266-2.23-4.327-4.265-5.628c-1.91-1.224-3.507-2.159-5.059-3.932c-1.566-1.79-3.438-2.912-5.251-4.422
		c-1.142-0.949-2.415-1.74-3.46-2.797c-1.066-1.08-1.914-2.281-3.223-3.09c-1.352-0.836-2.645-2.23-4.226-2.615
		c-0.825-0.199-1.815,0.114-2.657,0.194c-1.254,0.122-2.477,0.217-3.797,0.334c-2.932,0.259-6.044,1.226-8.982,1.007
		c-2.92-0.217-5.988,0.041-8.926,0.177c-2.754,0.13-5.562,0.968-7.213,3.239c-0.738,1.016-4.203,4.959-4.39,5.592"/>
	<path fill="#FFFFFF" stroke="#676868" stroke-miterlimit="10" d="M279.135,134.788c2.073,1.478,2.905,5.197,3.265,7.56
		c0.222,1.466,0.519,2.957,0.286,4.435c-0.104,0.666-0.547,2.787-0.534,2.797"/>
	<path fill="#FFFFFF" stroke="#676868" stroke-miterlimit="10" d="M249.826,135.78c-1.888,0.088-3.984,4.264-5.049,5.762
		c-1.332,1.882-2.459,4.381-3.141,6.328"/>
	<path fill="#FFFFFF" stroke="#676868" stroke-miterlimit="10" d="M212.181,179.505c0,0,3.792,2.635,4.63,3.236
		c2.078,1.49,3.67,3.244,5.476,5.04c3.273,3.25,6.389,6.56,10.354,9.021c2.039,1.267,3.383,2.33,4.908,4.212
		c1.299,1.598,2.314,3.27,3.301,4.963c0.011-0.153-0.01-0.303-0.064-0.445"/>
	<path fill="#FFFFFF" stroke="#676868" stroke-miterlimit="10" d="M225.036,173.865c-1.362,1.83-2.927,3.689-4.301,5.573
		c-0.647,0.881-2.698,3.61-2.356,4.401"/>
	<path fill="#FFFFFF" stroke="#676868" stroke-miterlimit="10" d="M240.695,206.812c1.01-2.745,5.41-5.881,7.566-7.738
		c2.652-2.291,5.159-4.123,8.295-5.672c2.713-1.342,5.334-2.746,8.314-3.479c2.764-0.677,5.344-1.941,8.142-2.496
		c2.932-0.582,6.036-0.595,9.01-0.896c1.989-0.199,3.961-0.686,5.975-0.969c2.516-0.355,4.481-0.083,6.873,0.516
		c0.988,0.246,1.818,0.298,2.659,0.927c0.93,0.698,1.275,0.632,2.402,0.927c1.617,0.416,3.174,2.438,4.336,3.596
		c1.354,1.354,2.663,2.732,3.95,4.175c1.599,1.795,3.37,3.096,4.739,5.088c0.649,0.942,1.614,1.802,2.009,2.86
		c0.398,1.09,0.222,2.274,0.444,3.365c0.246,1.203,1.046,2.802,1.021,3.764"/>
	<path fill="#FFFFFF" stroke="#676868" stroke-miterlimit="10" d="M333.248,196.082c-0.469,0.885-0.578,1.479-1.332,2.512
		c-0.767,1.057-1.806,1.977-2.659,2.97c-1.435,1.667-3.208,3.567-4.294,5.494"/>
	<path fill="#FFFFFF" stroke="#676868" stroke-miterlimit="10" d="M332.604,215.703c-0.39-0.863-0.583-1.619-1.45-2.479
		c-0.694-0.699-1.261-1.423-1.812-2.222c-0.983-1.424-2.364-2.682-4.031-3.32c-1.71-0.652-3.554,0.251-5.028,1.219
		c-1.606,1.059-3.141,1.75-5.062,2.225c-2.369,0.584-4.293,0.25-6.587,1.316c-2.448,1.141-4.645,2.735-7.067,3.992
		c-5.4,2.805-10.956,5.281-15.771,9.209c-2.149,1.752-4.413,3.36-6.373,5.311c-1.508,1.497-4.432,4.252-4.432,4.252"/>
	<path fill="#FFFFFF" stroke="#676868" stroke-miterlimit="10" d="M278.455,231.945c-0.185-1.303-2.058-2.16-3.001-3.01
		c-1.243-1.119-2.439-2.016-4.009-2.675c-3.674-1.548-7.248-4.081-10.492-6.421c-3.387-2.442-6.398-5.393-9.861-7.715
		c-2.211-1.484-4.644-3.551-7.291-4.135c-0.862-0.188-1.527-0.197-2.299-0.559c-0.737-0.34-1.375-0.863-2.136-1.141
		c-2.603-0.954-5.899-1.065-8.606-0.895c-2.51,0.156-4.767,0.749-7.287,0.477c-2.418-0.264-4.819-0.064-7.259-0.244
		c-2.653-0.191-5.458-0.352-7.251,1.896c-2.274,2.848-1.953,6.609-0.844,9.889c0.939,2.779,2.359,5.272,3.165,8.103
		c1.122,3.937,3.683,6.579,5.822,9.905c1.479,2.309,2.662,4.886,4.79,6.748c1.467,1.281,3.285,2.283,4.609,3.664"/>
	<path fill="#FFFFFF" stroke="#676868" stroke-miterlimit="10" d="M306.685,266.72c1.605-2.72,2.199-5.338,0.915-8.377
		c-1.247-2.953-3.194-5.299-5.183-7.844c-1.77-2.263-3.822-3.954-5.814-6.017c-2.205-2.288-4.298-4.579-7.07-6.2
		c-4.244-2.477-9.774-3.158-14.541-3.078c-1.59,0.027-3.093,0.662-4.628,1.037c-1.799,0.438-3.695,0.688-5.513,0.871
		c-3.408,0.338-6.827-0.233-10.257-0.168c-1.891,0.037-3.779-0.225-5.664-0.053c-2.013,0.186-3.842,0.855-5.715,1.531
		c-2.625,0.941-5.406,1.541-8.086,2.373c-2.316,0.717-4.78,1.36-6.732,2.936c-1.09,0.881-1.674,2.144-2.607,3.16
		c-0.85,0.933-1.764,1.479-2.409,2.559c-1.095,1.82-1.368,3.135-1.725,5.163c0.089-0.062-0.103,0.204-0.016,0.138"/>
	<path fill="#FFFFFF" stroke="#676868" stroke-miterlimit="10" d="M334.306,234.105c1.72,3.221-2.833,5.821-4.796,7.605
		c-2.326,2.119-4.712,4.301-7.269,6.191c-2.384,1.77-4.808,3.689-7.003,5.688c-2.29,2.086-5.02,3.897-7.174,6.121"/>
	<path fill="#FFFFFF" stroke="#676868" stroke-miterlimit="10" d="M323.485,275.57c-0.013-0.99-0.957-1.561-1.557-2.23
		c-0.807-0.896-1.253-1.949-1.944-2.875c-1.485-1.991-3.941-2.792-6.263-3.344c-2.558-0.607-4.304-0.379-6.962,0.148
		c-2.644,0.523-4.977,1.766-7.663,2.081c-2.116,0.25-4.027,0.475-6.149,0.133c-1.634-0.26-3.239-0.547-4.909-0.414
		c-3.836,0.305-7.315,1.492-10.606,3.516c-2.783,1.705-5.511,3.188-7.946,5.371c-1.409,1.271-2.798,3.094-4.511,3.963
		c-1.47,0.744-3.06,1-4.09,2.469c-0.875,1.252-1.889,2.336-3.025,3.383c-0.799,0.734-1.551,1.449-2.242,2.275
		c-0.924,1.098-9.034,12.68-9.812,13.576"/>
	<path fill="#FFFFFF" stroke="#676868" stroke-miterlimit="10" d="M207.17,252.925c2.349,0.414,4.738,0.042,7.115,0.533
		c2.512,0.523,4.959,1.127,7.467,1.41c1.9,0.219,3.704,0.463,5.554,0.967c2.382,0.645,3.467,2.852,5.478,4.264
		c1.58,1.115,2.517,2.69,3.854,4.033c1.26,1.264,3.195,2.085,4.646,3.139c1.268,0.918,2.545,1.879,3.816,2.805
		c1.505,1.098,2.608,2.639,4.121,3.703c1.09,0.77,2.364,1.328,3.443,2.115c1.139,0.838,2.07,2.111,2.9,3.25
		c1.783,2.445,2.346,4.197,4.361,6.477"/>
	<path fill="#FFFFFF" stroke="#676868" stroke-miterlimit="10" d="M207.395,271.297c0.148,1.16,0.797,2.49,1.258,3.545
		c0.515,1.164,1.303,2.162,1.841,3.316c1.19,2.545,2.065,5.238,4.114,7.242c0.894,0.873,1.979,1.646,3.033,2.305
		c1.273,0.791,2.545,1.814,3.876,2.508c2.573,1.346,5.468,2.051,7.782,3.857c1.406,1.098,9.895,7.734,11.396,8.674"/>
</g>
<text transform="matrix(1 0 0 1 192.3721 399.1953)" fill="#FAFAF7" font-family="'Existence-Light'" font-size="91.5875">JAR</text>
</svg>
