<?xml version="1.0" encoding="utf-8"?>
<!-- Generator: Adobe Illustrator 16.0.0, SVG Export Plug-In . SVG Version: 6.00 Build 0)  -->
<!DOCTYPE svg PUBLIC "-//W3C//DTD SVG 1.1//EN" "http://www.w3.org/Graphics/SVG/1.1/DTD/svg11.dtd">
<svg version="1.1" id="Layer_1" xmlns="http://www.w3.org/2000/svg" xmlns:xlink="http://www.w3.org/1999/xlink" x="0px" y="0px"
	 width="538.583px" height="538.583px" viewBox="0 0 538.583 538.583" enable-background="new 0 0 538.583 538.583"
	 xml:space="preserve">
<linearGradient id="SVGID_1_" gradientUnits="userSpaceOnUse" x1="-49.8755" y1="453.563" x2="588.4586" y2="85.0206">
	<stop  offset="0" style="stop-color:#FFFFFF"/>
	<stop  offset="1" style="stop-color:#FFDD00"/>
</linearGradient>
<rect fill="#F8D845" stroke="url(#SVGID_1_)" stroke-width="1.0009" stroke-miterlimit="10" width="538.583" height="538.582"/>
<g>
	<path fill="#FAFAF7" stroke="#F8D845" stroke-width="1.5707" stroke-miterlimit="10" d="M276.795,304.011
		c-5.019,0.227-10.01,1.655-15.105,1.979c-9.166,0.584-17.183-1.412-26.258-2.854c-4.214-0.672-8.107-3.479-12.146-4.986
		c-5.367-1.995-7.285-3.934-10.184-8.683c-2.659-4.361-5.804-8.986-6.124-14.455c-0.1-1.738,0.969-4.069,0.319-5.711
		c-0.463-1.165-2.191-2.094-2.943-3.023c-1.801-2.217-2.223-4.355-2.909-7.121c-0.393-1.575-2.152-4.702-0.392-6.055
		c1.422-1.094,4.182,1.053,5.916,0.956c-0.059-3.244-4.48-6.082-5.658-9.011c-1.437-3.565-2.26-8.027-2.624-11.756
		c-0.382-3.932-1.537-7.902-0.861-11.79c1.076-6.173,7.104-1.329,11.024-0.88c-0.729-1.921-3.884-4.41-4.107-6.502
		c-0.222-2.031,0.468-4.16,0.23-6.334c-0.25-2.259-1.025-4.183-0.769-6.451c0.219-1.979,0.802-3.789,0.728-5.811
		c-0.149-4.097-0.261-8.576,0.537-12.69c0.327-1.674,0.327-3.897,2.069-4.319c1.188-0.291,3.725,1.547,4.646,2.277
		c0.043-2.452-1.221-5.143-0.933-7.514c0.259-2.146,1.657-4.269,2.583-6.262c1.416-3.034,5.527-9.75,9.572-9.065
		c1.488-3.907,2.665-6.872,5.07-10.621c1.011-1.574,1.662-3.202,3.054-4.494c1.795-1.665,3.963-1.391,5.561-2.525
		c2.142-1.521,8.519-9.464,11.239-6.445c2.443,2.711-0.83,3.818,3.558,2.865c2.382-0.517,4.643-0.821,6.973-1.074
		c6.92-0.757,14.315-3.866,20.49,0.36c2.922-1.546,6.408-3.596,9.862-2.821c3.748,0.842,4.943,4.393,6.883,7.264
		c4.206-2.925,14.066,13.717,14.558,17.466c4.376-0.495,4.299,0.562,5.354,4.586c0.803,3.068,2.324,5.918,2.757,9.06
		c6.481-2.806,5.535,18.122,6.609,21.139c4.324-1.332,7.954,1.589,8.318,5.574c0.385,4.138-0.334,7.841-0.912,11.87
		c-0.563,3.873,0.08,8.041-0.158,11.934c-0.167,2.711,0.611,5.36,0.604,8.056c0,3.277,0.02,3.383,1.497,5.977
		c1.974,3.453,1.868,8.552,1.132,12.354c-1.006,5.164-2.866,10.351-5.432,14.846c-2.29,4.01-5.613,7.9-6.511,12.369
		c-1.092,5.435-1.383,9.506-5.955,13.674c-4.857,4.436-10.239,7.568-16.419,9.715C293.188,301.974,285.562,303.615,276.795,304.011z
		"/>
	<path fill="#FAFAF7" stroke="#F8D845" stroke-width="1.5707" stroke-miterlimit="10" d="M295.915,140.542
		c-1.308,1.623-2.431,3.255-3.116,5.266c-0.392,1.138-0.606,2.367-0.848,3.576c-0.099,0.491-0.273,1.069-0.358,1.603
		c-0.087,0.517,0.283,0.92-0.087,0.517"/>
	<path fill="#FAFAF7" stroke="#F8D845" stroke-width="1.5707" stroke-miterlimit="10" d="M228.86,146.822
		c2.24-1.057,5.342-0.077,7.533,0.833c2.29,0.954,4.214,1.306,6.575,1.987c2.809,0.81,4.128,1.906,6.156,3.987
		c1.943,1.999,4.033,3.271,6.443,4.728c1.256,0.757,2.5,1.495,3.764,2.211c0.551,0.309,1.125,0.546,1.672,0.855
		c0.346,0.2,1.75,1.286,1.75,1.286"/>
	<path fill="#FAFAF7" stroke="#F8D845" stroke-width="1.5707" stroke-miterlimit="10" d="M309.32,174.699
		c-0.885-0.289-0.673-7.894-1.294-9.284c-1.034-2.319-2.062-4.985-3.771-6.891c-1.524-1.7-3.434-3.226-5.272-4.641
		c-1.818-1.397-4.024-1.575-6.151-1.797c-2.328-0.246-4.601-0.078-7.003-0.55c-2.896-0.573-5.576-0.084-8.136,1.432
		c-4.416,2.619-8.797,4.759-12.576,8.239c-1.368,1.262-2.895,1.811-4.083,3.36c0.096-0.091-0.098,0.091,0,0"/>
	<path fill="#FAFAF7" stroke="#F8D845" stroke-width="1.5707" stroke-miterlimit="10" d="M223.933,176.593
		c-2.271,0.382-3.98-4.445-4.619-5.953c-1.054-2.479-1.907-6.351-2.221-8.69"/>
	<path fill="#FAFAF7" stroke="#F8D845" stroke-width="1.5707" stroke-miterlimit="10" d="M312.166,158.224
		c-0.097,0.258,0.115,0.968,0.089,1.443c-0.036,0.689-0.348,1.357-0.773,1.926c-0.794,1.068-2.051,2.133-3.124,2.892"/>
	<path fill="#FAFAF7" stroke="#F8D845" stroke-width="1.5707" stroke-miterlimit="10" d="M318.744,171.508
		c-1.482,1.104-4.207,0.582-6.004,1.421c-2.071,0.972-4.036,2.193-6.127,3.106c-4.921,2.148-8.11,6.27-11.732,9.973
		c-0.047,0.048-0.764,0.89-0.563,0.68"/>
	<path fill="#FAFAF7" stroke="#F8D845" stroke-width="1.5707" stroke-miterlimit="10" d="M286.405,186.716
		c0.031,0.123,0.05,0.252,0.08,0.375c-0.793-2.266-2.23-4.327-4.265-5.628c-1.91-1.224-3.507-2.159-5.059-3.932
		c-1.566-1.79-3.438-2.912-5.251-4.422c-1.142-0.949-2.415-1.74-3.459-2.796c-1.067-1.08-1.914-2.282-3.224-3.091
		c-1.351-0.835-2.644-2.229-4.225-2.614c-0.826-0.199-1.816,0.114-2.657,0.194c-1.254,0.122-2.477,0.217-3.797,0.334
		c-2.931,0.258-6.043,1.225-8.981,1.007c-2.92-0.217-5.989,0.04-8.926,0.176c-2.754,0.13-5.562,0.968-7.213,3.24
		c-0.739,1.016-4.203,4.959-4.39,5.591"/>
	<path fill="#FAFAF7" stroke="#F8D845" stroke-width="1.5707" stroke-miterlimit="10" d="M279.137,136.074
		c2.073,1.478,2.905,5.197,3.265,7.56c0.222,1.467,0.519,2.956,0.286,4.436c-0.104,0.666-0.547,2.787-0.534,2.796"/>
	<path fill="#FAFAF7" stroke="#F8D845" stroke-width="1.5707" stroke-miterlimit="10" d="M249.828,137.066
		c-1.887,0.088-3.984,4.264-5.048,5.762c-1.332,1.882-2.46,4.381-3.142,6.328"/>
	<path fill="#FAFAF7" stroke="#F8D845" stroke-width="1.5707" stroke-miterlimit="10" d="M212.183,180.791
		c0,0,3.792,2.635,4.63,3.237c2.078,1.49,3.669,3.244,5.475,5.04c3.273,3.25,6.389,6.56,10.355,9.021
		c2.039,1.266,3.382,2.33,4.908,4.212c1.299,1.597,2.313,3.269,3.3,4.963c0.011-0.154-0.009-0.303-0.064-0.446"/>
	<path fill="#FAFAF7" stroke="#F8D845" stroke-width="1.5707" stroke-miterlimit="10" d="M225.038,175.15
		c-1.363,1.831-2.927,3.69-4.301,5.574c-0.647,0.881-2.698,3.611-2.356,4.401"/>
	<path fill="#FAFAF7" stroke="#F8D845" stroke-width="1.5707" stroke-miterlimit="10" d="M240.697,208.098
		c1.01-2.746,5.411-5.882,7.566-7.739c2.652-2.291,5.159-4.123,8.294-5.671c2.714-1.342,5.334-2.747,8.315-3.479
		c2.763-0.677,5.343-1.942,8.141-2.496c2.932-0.582,6.036-0.595,9.01-0.897c1.989-0.199,3.961-0.686,5.975-0.969
		c2.516-0.355,4.481-0.083,6.873,0.516c0.988,0.246,1.818,0.298,2.659,0.927c0.93,0.698,1.275,0.631,2.402,0.926
		c1.617,0.417,3.174,2.438,4.336,3.597c1.354,1.354,2.663,2.732,3.95,4.174c1.599,1.795,3.37,3.096,4.739,5.088
		c0.649,0.942,1.614,1.802,2.009,2.861c0.398,1.089,0.222,2.274,0.444,3.365c0.246,1.204,1.046,2.802,1.021,3.764"/>
	<path fill="#FAFAF7" stroke="#F8D845" stroke-width="1.5707" stroke-miterlimit="10" d="M333.25,197.367
		c-0.469,0.886-0.578,1.48-1.332,2.512c-0.767,1.057-1.806,1.977-2.659,2.97c-1.435,1.667-3.208,3.567-4.294,5.494"/>
	<path fill="#FAFAF7" stroke="#F8D845" stroke-width="1.5707" stroke-miterlimit="10" d="M332.606,216.988
		c-0.39-0.863-0.583-1.619-1.45-2.479c-0.694-0.699-1.261-1.423-1.812-2.221c-0.983-1.424-2.364-2.682-4.031-3.321
		c-1.71-0.653-3.554,0.251-5.028,1.218c-1.606,1.06-3.141,1.75-5.062,2.225c-2.369,0.585-4.293,0.251-6.587,1.317
		c-2.448,1.141-4.645,2.735-7.067,3.992c-5.4,2.805-10.956,5.281-15.771,9.209c-2.149,1.751-4.413,3.36-6.373,5.311
		c-1.508,1.497-4.432,4.251-4.432,4.251"/>
	<path fill="#FAFAF7" stroke="#F8D845" stroke-width="1.5707" stroke-miterlimit="10" d="M278.457,233.23
		c-0.185-1.302-2.058-2.16-3.001-3.009c-1.243-1.12-2.439-2.016-4.009-2.675c-3.674-1.548-7.248-4.081-10.492-6.421
		c-3.387-2.442-6.398-5.392-9.861-7.715c-2.211-1.483-4.644-3.55-7.291-4.134c-0.863-0.189-1.528-0.197-2.3-0.559
		c-0.737-0.341-1.375-0.863-2.135-1.141c-2.603-0.954-5.899-1.065-8.606-0.895c-2.511,0.157-4.767,0.749-7.287,0.476
		c-2.419-0.263-4.82-0.064-7.259-0.244c-2.653-0.191-5.458-0.352-7.251,1.897c-2.274,2.847-1.952,6.61-0.844,9.889
		c0.94,2.779,2.36,5.272,3.166,8.102c1.122,3.937,3.682,6.579,5.822,9.905c1.479,2.309,2.662,4.886,4.791,6.748
		c1.466,1.282,3.285,2.284,4.608,3.664"/>
	<path fill="#FAFAF7" stroke="#F8D845" stroke-width="1.5707" stroke-miterlimit="10" d="M306.687,268.006
		c1.605-2.72,2.199-5.338,0.915-8.377c-1.247-2.953-3.194-5.299-5.183-7.844c-1.77-2.262-3.822-3.954-5.814-6.016
		c-2.205-2.288-4.298-4.579-7.07-6.2c-4.244-2.476-9.774-3.158-14.541-3.079c-1.59,0.028-3.093,0.662-4.627,1.037
		c-1.799,0.439-3.696,0.688-5.513,0.871c-3.408,0.338-6.828-0.233-10.257-0.167c-1.89,0.038-3.78-0.225-5.665-0.052
		c-2.012,0.186-3.841,0.855-5.715,1.53c-2.625,0.942-5.406,1.542-8.085,2.374c-2.317,0.716-4.781,1.36-6.732,2.935
		c-1.09,0.881-1.674,2.144-2.607,3.161c-0.85,0.933-1.764,1.478-2.41,2.558c-1.095,1.82-1.368,3.136-1.725,5.164
		c0.089-0.061-0.102,0.204-0.016,0.137"/>
	<path fill="#FAFAF7" stroke="#F8D845" stroke-width="1.5707" stroke-miterlimit="10" d="M334.308,235.39
		c1.72,3.222-2.833,5.822-4.796,7.606c-2.326,2.119-4.712,4.301-7.269,6.192c-2.384,1.77-4.808,3.689-7.003,5.688
		c-2.29,2.085-5.02,3.897-7.174,6.121"/>
	<path fill="#FAFAF7" stroke="#F8D845" stroke-width="1.5707" stroke-miterlimit="10" d="M323.487,276.856
		c-0.013-0.99-0.957-1.562-1.557-2.231c-0.807-0.896-1.253-1.948-1.944-2.875c-1.485-1.99-3.941-2.79-6.263-3.344
		c-2.558-0.606-4.304-0.378-6.962,0.149c-2.644,0.523-4.977,1.767-7.663,2.081c-2.116,0.249-4.027,0.474-6.149,0.133
		c-1.634-0.261-3.239-0.548-4.909-0.415c-3.836,0.304-7.315,1.493-10.606,3.516c-2.783,1.705-5.511,3.187-7.946,5.371
		c-1.409,1.271-2.798,3.094-4.511,3.963c-1.469,0.744-3.059,0.999-4.089,2.468c-0.875,1.253-1.889,2.336-3.025,3.384
		c-0.798,0.734-1.551,1.449-2.243,2.274c-0.923,1.099-9.034,12.68-9.812,13.577"/>
	<path fill="#FAFAF7" stroke="#F8D845" stroke-width="1.5707" stroke-miterlimit="10" d="M207.172,254.21
		c2.348,0.415,4.737,0.042,7.115,0.534c2.511,0.522,4.959,1.126,7.466,1.41c1.901,0.219,3.705,0.463,5.554,0.967
		c2.382,0.645,3.467,2.851,5.478,4.264c1.579,1.115,2.516,2.69,3.853,4.033c1.26,1.263,3.195,2.084,4.647,3.139
		c1.267,0.918,2.544,1.878,3.816,2.804c1.504,1.099,2.608,2.64,4.121,3.704c1.089,0.77,2.364,1.328,3.444,2.114
		c1.139,0.839,2.07,2.112,2.9,3.251c1.783,2.445,2.345,4.196,4.361,6.477"/>
	<path fill="#FAFAF7" stroke="#F8D845" stroke-width="1.5707" stroke-miterlimit="10" d="M207.396,272.583
		c0.148,1.16,0.797,2.489,1.258,3.544c0.514,1.165,1.302,2.162,1.84,3.317c1.19,2.544,2.065,5.237,4.114,7.241
		c0.894,0.874,1.979,1.647,3.033,2.306c1.273,0.79,2.545,1.813,3.876,2.508c2.573,1.346,5.468,2.051,7.782,3.856
		c1.407,1.099,9.894,7.734,11.396,8.674"/>
</g>
<text transform="matrix(1 0 0 1 192.374 400.48)" fill="#FAFAF7" font-family="'Existence-Light'" font-size="91.5875">JAR</text>
</svg>
