<?xml version="1.0" encoding="utf-8"?>
<!-- Generator: Adobe Illustrator 16.0.0, SVG Export Plug-In . SVG Version: 6.00 Build 0)  -->
<!DOCTYPE svg PUBLIC "-//W3C//DTD SVG 1.1//EN" "http://www.w3.org/Graphics/SVG/1.1/DTD/svg11.dtd">
<svg version="1.1" id="Layer_1" xmlns="http://www.w3.org/2000/svg" xmlns:xlink="http://www.w3.org/1999/xlink" x="0px" y="0px"
	 width="538.58px" height="538.58px" viewBox="0 0 538.58 538.58" enable-background="new 0 0 538.58 538.58" xml:space="preserve">
<path fill="none" d="M-1937.5-162.5"/>
<path fill="none" d="M-1721.5-49.5"/>
<g>
	
		<path fill="#FDFDFD" stroke="#000000" stroke-width="1.5" stroke-linecap="round" stroke-linejoin="round" stroke-miterlimit="10" d="
		M275.102,387.48c-5.019,0.227-10.01,1.654-15.105,1.979c-9.166,0.584-17.182-1.412-26.258-2.854
		c-4.213-0.672-8.106-3.48-12.145-4.986c-5.367-1.996-7.285-3.934-10.185-8.684c-2.659-4.361-5.804-8.986-6.124-14.455
		c-0.1-1.738,0.969-4.068,0.318-5.711c-0.463-1.164-2.19-2.094-2.943-3.023c-1.801-2.217-2.223-4.355-2.908-7.121
		c-0.394-1.574-2.152-4.701-0.393-6.055c1.422-1.094,4.182,1.053,5.916,0.955c-0.059-3.242-4.48-6.08-5.658-9.01
		c-1.438-3.566-2.26-8.027-2.624-11.756c-0.382-3.934-1.536-7.903-0.86-11.792c1.075-6.172,7.104-1.328,11.023-0.879
		c-0.729-1.922-3.884-4.41-4.107-6.502c-0.221-2.031,0.469-4.16,0.23-6.334c-0.25-2.26-1.025-4.185-0.77-6.453
		c0.219-1.979,0.803-3.791,0.729-5.813c-0.15-4.1-0.262-8.58,0.536-12.696c0.327-1.674,0.327-3.896,2.069-4.318
		c1.188-0.291,3.725,1.547,4.646,2.277c0.044-2.453-1.222-5.143-0.933-7.514c0.26-2.146,1.657-4.27,2.584-6.262
		c1.415-3.035,5.526-9.75,9.572-9.066c1.487-3.906,2.664-6.871,5.069-10.619c1.011-1.574,1.661-3.203,3.054-4.496
		c1.796-1.664,3.963-1.391,5.561-2.525c2.143-1.52,8.52-9.463,11.239-6.443c2.442,2.711-0.829,3.816,3.558,2.863
		c2.383-0.516,4.644-0.82,6.974-1.074c6.921-0.756,14.315-3.865,20.49,0.361c2.922-1.547,6.408-3.596,9.862-2.822
		c3.748,0.842,4.943,4.393,6.883,7.266c4.206-2.926,14.066,13.717,14.558,17.465c4.376-0.494,4.299,0.562,5.354,4.588
		c0.803,3.066,2.324,5.918,2.757,9.059c6.481-2.805,5.535,18.125,6.609,21.142c4.324-1.333,7.954,1.59,8.318,5.576
		c0.385,4.141-0.334,7.846-0.912,11.873c-0.563,3.873,0.08,8.041-0.158,11.936c-0.167,2.711,0.611,5.359,0.604,8.056
		c0,3.277,0.02,3.383,1.497,5.977c1.974,3.453,1.868,8.553,1.132,12.355c-1.006,5.164-2.866,10.35-5.432,14.846
		c-2.29,4.01-5.613,7.9-6.511,12.369c-1.092,5.434-1.383,9.506-5.955,13.674c-4.857,4.436-10.239,7.568-16.419,9.715
		C291.494,385.443,283.869,387.084,275.102,387.48z"/>
	
		<path fill="#FDFDFD" stroke="#000000" stroke-width="1.5" stroke-linecap="round" stroke-linejoin="round" stroke-miterlimit="10" d="
		M294.222,224c-1.308,1.623-2.431,3.256-3.116,5.268c-0.392,1.137-0.606,2.367-0.848,3.574c-0.099,0.492-0.273,1.07-0.358,1.604
		c-0.087,0.518,0.283,0.92-0.087,0.518"/>
	
		<path fill="#FDFDFD" stroke="#000000" stroke-width="1.5" stroke-linecap="round" stroke-linejoin="round" stroke-miterlimit="10" d="
		M227.167,230.281c2.24-1.057,5.342-0.078,7.532,0.832c2.291,0.953,4.215,1.307,6.575,1.986c2.81,0.811,4.128,1.906,6.155,3.988
		c1.943,1.998,4.033,3.271,6.443,4.727c1.256,0.758,2.5,1.496,3.764,2.213c0.551,0.309,1.125,0.545,1.673,0.854
		c0.346,0.201,1.75,1.287,1.75,1.287"/>
	
		<path fill="#FDFDFD" stroke="#000000" stroke-width="1.5" stroke-linecap="round" stroke-linejoin="round" stroke-miterlimit="10" d="
		M307.627,258.158c-0.885-0.289-0.673-7.895-1.294-9.285c-1.034-2.318-2.062-4.984-3.771-6.891
		c-1.524-1.699-3.434-3.225-5.272-4.641c-1.818-1.396-4.024-1.574-6.151-1.797c-2.328-0.246-4.601-0.078-7.003-0.551
		c-2.896-0.572-5.576-0.084-8.136,1.432c-4.416,2.619-8.797,4.76-12.576,8.238c-1.367,1.262-2.895,1.811-4.082,3.361
		c0.096-0.092-0.098,0.09,0,0"/>
	
		<path fill="#FDFDFD" stroke="#000000" stroke-width="1.5" stroke-linecap="round" stroke-linejoin="round" stroke-miterlimit="10" d="
		M222.239,260.052c-2.271,0.381-3.98-4.445-4.619-5.953c-1.054-2.48-1.907-6.352-2.222-8.691"/>
	
		<path fill="#FDFDFD" stroke="#000000" stroke-width="1.5" stroke-linecap="round" stroke-linejoin="round" stroke-miterlimit="10" d="
		M310.473,241.681c-0.097,0.26,0.115,0.969,0.089,1.443c-0.036,0.689-0.348,1.357-0.773,1.926c-0.794,1.068-2.051,2.135-3.124,2.893
		"/>
	
		<path fill="#FDFDFD" stroke="#000000" stroke-width="1.5" stroke-linecap="round" stroke-linejoin="round" stroke-miterlimit="10" d="
		M317.051,254.966c-1.482,1.105-4.207,0.582-6.004,1.422c-2.071,0.973-4.036,2.193-6.127,3.105c-4.921,2.148-8.11,6.27-11.732,9.973
		c-0.047,0.049-0.764,0.891-0.563,0.682"/>
	
		<path fill="#FDFDFD" stroke="#000000" stroke-width="1.5" stroke-linecap="round" stroke-linejoin="round" stroke-miterlimit="10" d="
		M284.712,270.176c0.031,0.123,0.05,0.252,0.08,0.373c-0.793-2.266-2.23-4.327-4.265-5.627c-1.91-1.225-3.507-2.16-5.059-3.932
		c-1.566-1.791-3.438-2.912-5.251-4.422c-1.142-0.949-2.415-1.74-3.46-2.797c-1.066-1.08-1.914-2.281-3.223-3.09
		c-1.352-0.836-2.645-2.23-4.226-2.615c-0.825-0.199-1.815,0.113-2.657,0.193c-1.254,0.123-2.477,0.217-3.797,0.334
		c-2.932,0.26-6.044,1.227-8.982,1.008c-2.92-0.217-5.988,0.041-8.926,0.176c-2.754,0.131-5.562,0.969-7.213,3.24
		c-0.738,1.016-4.203,4.959-4.39,5.592"/>
	
		<path fill="#FDFDFD" stroke="#000000" stroke-width="1.5" stroke-linecap="round" stroke-linejoin="round" stroke-miterlimit="10" d="
		M277.443,219.531c2.073,1.479,2.905,5.197,3.265,7.561c0.222,1.467,0.519,2.957,0.286,4.436c-0.104,0.666-0.547,2.787-0.534,2.797"
		/>
	
		<path fill="#FDFDFD" stroke="#000000" stroke-width="1.5" stroke-linecap="round" stroke-linejoin="round" stroke-miterlimit="10" d="
		M248.135,220.523c-1.888,0.09-3.984,4.266-5.049,5.764c-1.332,1.881-2.459,4.381-3.141,6.328"/>
	
		<path fill="#FDFDFD" stroke="#000000" stroke-width="1.5" stroke-linecap="round" stroke-linejoin="round" stroke-miterlimit="10" d="
		M210.489,264.25c0,0,3.792,2.635,4.63,3.236c2.078,1.49,3.67,3.245,5.476,5.041c3.273,3.251,6.389,6.563,10.354,9.025
		c2.039,1.269,3.383,2.331,4.908,4.215c1.299,1.599,2.314,3.271,3.301,4.965c0.011-0.154-0.01-0.303-0.064-0.445"/>
	
		<path fill="#FDFDFD" stroke="#000000" stroke-width="1.5" stroke-linecap="round" stroke-linejoin="round" stroke-miterlimit="10" d="
		M223.345,258.609c-1.362,1.83-2.927,3.689-4.301,5.572c-0.647,0.881-2.698,3.611-2.356,4.402"/>
	
		<path fill="#FDFDFD" stroke="#000000" stroke-width="1.5" stroke-linecap="round" stroke-linejoin="round" stroke-miterlimit="10" d="
		M239.004,291.565c1.01-2.746,5.41-5.883,7.566-7.741c2.652-2.292,5.159-4.125,8.295-5.674c2.713-1.343,5.334-2.748,8.314-3.48
		c2.764-0.679,5.344-1.942,8.142-2.497c2.932-0.583,6.036-0.597,9.01-0.897c1.989-0.199,3.961-0.686,5.975-0.969
		c2.516-0.356,4.481-0.084,6.873,0.516c0.988,0.246,1.818,0.297,2.659,0.926c0.93,0.7,1.275,0.634,2.402,0.929
		c1.617,0.416,3.174,2.438,4.336,3.598c1.354,1.354,2.663,2.733,3.95,4.176c1.599,1.796,3.37,3.097,4.739,5.09
		c0.649,0.944,1.614,1.804,2.009,2.863c0.398,1.09,0.222,2.273,0.444,3.365c0.246,1.203,1.046,2.801,1.021,3.764"/>
	
		<path fill="#FDFDFD" stroke="#000000" stroke-width="1.5" stroke-linecap="round" stroke-linejoin="round" stroke-miterlimit="10" d="
		M331.557,280.831c-0.469,0.885-0.578,1.479-1.332,2.513c-0.767,1.058-1.806,1.978-2.659,2.971
		c-1.435,1.668-3.208,3.569-4.294,5.495"/>
	
		<path fill="#FDFDFD" stroke="#000000" stroke-width="1.5" stroke-linecap="round" stroke-linejoin="round" stroke-miterlimit="10" d="
		M330.913,300.456c-0.39-0.863-0.583-1.619-1.45-2.48c-0.694-0.699-1.261-1.422-1.812-2.221c-0.983-1.424-2.364-2.682-4.031-3.32
		c-1.71-0.652-3.554,0.25-5.028,1.219c-1.606,1.059-3.141,1.75-5.062,2.225c-2.369,0.584-4.293,0.25-6.587,1.316
		c-2.448,1.141-4.645,2.734-7.067,3.992c-5.4,2.805-10.956,5.281-15.771,9.209c-2.149,1.752-4.413,3.36-6.373,5.312
		c-1.508,1.496-4.432,4.252-4.432,4.252"/>
	
		<path fill="#FDFDFD" stroke="#000000" stroke-width="1.5" stroke-linecap="round" stroke-linejoin="round" stroke-miterlimit="10" d="
		M276.764,316.699c-0.185-1.303-2.058-2.16-3.001-3.01c-1.243-1.12-2.439-2.017-4.009-2.677c-3.674-1.547-7.248-4.08-10.492-6.42
		c-3.387-2.443-6.398-5.393-9.861-7.715c-2.211-1.484-4.644-3.551-7.291-4.135c-0.862-0.189-1.527-0.197-2.299-0.559
		c-0.737-0.34-1.375-0.863-2.136-1.141c-2.603-0.955-5.899-1.066-8.606-0.895c-2.51,0.156-4.767,0.748-7.287,0.477
		c-2.418-0.264-4.819-0.064-7.259-0.244c-2.653-0.191-5.458-0.352-7.251,1.896c-2.274,2.848-1.953,6.609-0.844,9.889
		c0.939,2.779,2.359,5.271,3.165,8.102c1.122,3.938,3.683,6.581,5.822,9.907c1.479,2.309,2.662,4.885,4.79,6.748
		c1.467,1.281,3.285,2.283,4.609,3.664"/>
	
		<path fill="#FDFDFD" stroke="#000000" stroke-width="1.5" stroke-linecap="round" stroke-linejoin="round" stroke-miterlimit="10" d="
		M304.993,351.475c1.605-2.721,2.199-5.338,0.915-8.377c-1.247-2.953-3.194-5.299-5.183-7.844c-1.77-2.264-3.822-3.955-5.814-6.018
		c-2.205-2.287-4.298-4.578-7.07-6.199c-4.244-2.477-9.774-3.158-14.541-3.078c-1.59,0.027-3.093,0.662-4.628,1.037
		c-1.799,0.438-3.695,0.688-5.513,0.871c-3.408,0.338-6.827-0.234-10.257-0.168c-1.891,0.037-3.779-0.225-5.664-0.053
		c-2.013,0.186-3.842,0.855-5.715,1.531c-2.625,0.941-5.406,1.541-8.086,2.373c-2.316,0.717-4.78,1.359-6.732,2.936
		c-1.09,0.881-1.674,2.143-2.607,3.16c-0.85,0.932-1.764,1.479-2.409,2.559c-1.095,1.82-1.368,3.135-1.725,5.162
		c0.089-0.061-0.103,0.205-0.016,0.139"/>
	
		<path fill="#FDFDFD" stroke="#000000" stroke-width="1.5" stroke-linecap="round" stroke-linejoin="round" stroke-miterlimit="10" d="
		M332.614,318.859c1.72,3.221-2.833,5.82-4.796,7.605c-2.326,2.119-4.712,4.301-7.269,6.191c-2.384,1.77-4.808,3.689-7.003,5.688
		c-2.29,2.086-5.02,3.896-7.174,6.121"/>
	
		<path fill="#FDFDFD" stroke="#000000" stroke-width="1.5" stroke-linecap="round" stroke-linejoin="round" stroke-miterlimit="10" d="
		M321.794,360.324c-0.013-0.99-0.957-1.561-1.557-2.23c-0.807-0.896-1.253-1.949-1.944-2.875c-1.485-1.99-3.941-2.791-6.263-3.344
		c-2.558-0.607-4.304-0.379-6.962,0.148c-2.644,0.523-4.977,1.766-7.663,2.08c-2.116,0.25-4.027,0.475-6.149,0.133
		c-1.634-0.26-3.239-0.547-4.909-0.414c-3.836,0.305-7.315,1.492-10.606,3.516c-2.783,1.705-5.511,3.188-7.946,5.371
		c-1.409,1.271-2.798,3.094-4.511,3.963c-1.47,0.744-3.06,1-4.09,2.469c-0.875,1.252-1.889,2.336-3.025,3.383
		c-0.799,0.734-1.551,1.449-2.242,2.275c-0.924,1.098-9.034,12.68-9.812,13.576"/>
	
		<path fill="#FDFDFD" stroke="#000000" stroke-width="1.5" stroke-linecap="round" stroke-linejoin="round" stroke-miterlimit="10" d="
		M205.479,337.68c2.349,0.414,4.738,0.041,7.115,0.533c2.512,0.523,4.959,1.127,7.467,1.41c1.9,0.219,3.704,0.463,5.554,0.967
		c2.382,0.645,3.467,2.852,5.478,4.264c1.58,1.115,2.517,2.689,3.854,4.033c1.26,1.264,3.195,2.084,4.646,3.139
		c1.268,0.918,2.545,1.879,3.816,2.805c1.505,1.098,2.608,2.639,4.121,3.703c1.09,0.77,2.364,1.328,3.443,2.115
		c1.139,0.838,2.07,2.111,2.9,3.25c1.783,2.445,2.346,4.197,4.361,6.477"/>
	
		<path fill="#FDFDFD" stroke="#000000" stroke-width="1.5" stroke-linecap="round" stroke-linejoin="round" stroke-miterlimit="10" d="
		M205.703,356.051c0.148,1.16,0.797,2.49,1.258,3.545c0.515,1.164,1.303,2.162,1.841,3.316c1.19,2.545,2.065,5.238,4.114,7.242
		c0.894,0.873,1.979,1.646,3.033,2.305c1.273,0.791,2.545,1.814,3.876,2.508c2.573,1.346,5.468,2.051,7.782,3.857
		c1.406,1.098,9.895,7.734,11.396,8.674"/>
</g>
<g>
	<g>
		<g>
			<path fill="#000101" d="M219.25,125.023c-2.836-2.494-18.918-9.295-19.141-1.763c-0.284,9.603,18.472,12.888,20.429,3.293
				c0.21-1.029-1.366-1.467-1.576-0.435c-0.777,3.81-5.565,4.62-8.812,4.432c-2.241-0.13-4.345-1.128-5.981-2.627
				c-1.052-0.963-3.376-4.235-2.071-5.724c1.574-1.795,6.515-0.057,8.319,0.47c2.548,0.744,5.641,1.717,7.677,3.509
				C218.882,126.873,220.043,125.721,219.25,125.023L219.25,125.023z"/>
		</g>
	</g>
	<g>
		<g>
			<path fill="#000101" d="M220.26,128.199c4.748-10.311,9.298-36.319,25.373-32.348c1.024,0.253,1.458-1.324,0.436-1.576
				c-17.48-4.318-22.076,21.931-27.221,33.099C218.41,128.325,219.818,129.156,220.26,128.199L220.26,128.199z"/>
		</g>
	</g>
</g>
<g>
	<g>
		<g>
			<path fill="#000101" d="M269.688,133.616c-4.512-0.739-9.101-0.333-13.611-1.071c-0.474-0.078-1.093,0.211-1.035,0.788
				c0.907,9.147,2.288,18.192,2.332,27.412c0.023,4.904-0.188,10.2-2.188,14.754c-0.802,1.827-2.114,3.317-4.063,3.893
				c-3.265,0.965-1.093-2.99,0.834-3.623c1.702-0.559,3.55-0.71,5.276-1.221c1.009-0.298,0.579-1.876-0.434-1.576
				c-5.004,1.479-8.781,1.183-9.397,7.197c-0.034,0.331,0.272,0.733,0.601,0.788c17.915,3.026,9.543-38.864,8.674-47.624
				c-0.345,0.263-0.689,0.525-1.035,0.788c4.513,0.738,9.102,0.332,13.613,1.071C270.284,135.361,270.727,133.786,269.688,133.616
				L269.688,133.616z"/>
		</g>
	</g>
</g>
<g>
	<g>
		<path fill="#000101" d="M312.646,135.342c-9.039,3.277-18.696,3.916-27.859,6.731c-0.507,0.155-0.757,0.732-0.489,1.201
			c5.16,9.024,9.953,19.56,11.057,29.987c0.414,3.918-1.383,11.605-6.922,8.883c-1.7-0.835-2.953-2.816-2.665-4.718
			c0.483-3.185,5.593-3.555,7.935-3.722c1.045-0.075,1.053-1.71,0-1.635c-4.401,0.314-11.414,2.134-9.199,8.044
			c1.267,3.378,6.045,5.683,9.12,3.2c5.3-4.279,3.36-12.233,1.848-17.832c-2.152-7.971-5.666-15.871-9.761-23.032
			c-0.163,0.4-0.326,0.801-0.489,1.201c9.164-2.815,18.821-3.454,27.861-6.731C314.064,136.562,313.641,134.982,312.646,135.342
			L312.646,135.342z"/>
	</g>
</g>
</svg>
